<svg xmlns="http://www.w3.org/2000/svg" width="16.84" height="17.469" viewBox="0 0 16.84 17.469">
  <metadata><?xpacket begin="﻿" id="W5M0MpCehiHzreSzNTczkc9d"?>
<x:xmpmeta xmlns:x="adobe:ns:meta/" x:xmptk="Adobe XMP Core 5.6-c142 79.160924, 2017/07/13-01:06:39        ">
   <rdf:RDF xmlns:rdf="http://www.w3.org/1999/02/22-rdf-syntax-ns#">
      <rdf:Description rdf:about=""/>
   </rdf:RDF>
</x:xmpmeta>
                                                                                                    
                                                                                                    
                                                                                                    
                                                                                                    
                                                                                                    
                                                                                                    
                                                                                                    
                                                                                                    
                                                                                                    
                                                                                                    
                                                                                                    
                                                                                                    
                                                                                                    
                                                                                                    
                                                                                                    
                                                                                                    
                                                                                                    
                                                                                                    
                                                                                                    
                                                                                                    
                           
<?xpacket end="w"?></metadata>
<defs>
    <style>
      .cls-1 {
        fill: #f1f1f1;
        fill-rule: evenodd;
      }
    </style>
  </defs>
  <path id="_5" data-name="5" class="cls-1" d="M1270.52,181.736c-2.07,0-3.58-1.315-3.58-2.9,0-1.549,1.87-2.839,3.95-2.816a4.52,4.52,0,0,1,1.34.216c1.13,0.785,1.94,1.228,2.17,2.122a2.594,2.594,0,0,1,.06.559c0,1.581-1.01,2.816-3.94,2.816m0.55-9.27c-1.39-.042-2.72-1.561-2.96-3.393s0.69-3.235,2.09-3.193,2.72,1.512,2.96,3.344-0.69,3.285-2.09,3.242m2.89,2.714a3.516,3.516,0,0,1-1.42-1.685c0-.581.16-0.866,1.04-1.55a3.65,3.65,0,0,0,1.53-2.828,3.227,3.227,0,0,0-1.75-3.128h1.72l1.21-.875h-5.42c-2.42,0-4.71,1.839-4.71,3.969a3.919,3.919,0,0,0,4.13,3.936c0.17,0,.34,0,0.5-0.016a2.217,2.217,0,0,0-.28,1.01,2.114,2.114,0,0,0,.74,1.5c-0.31,0-.61.009-0.94,0.009-3,0-5.32,1.915-5.32,3.9,0,1.955,2.54,3.179,5.55,3.179,3.42,0,5.32-1.946,5.32-3.9a3.783,3.783,0,0,0-1.9-3.52m7.88-2.554h-2.11v-2.108h-1.69v2.108h-2.11v1.7h2.11v2.108h1.69v-2.108h2.11v-1.7Z" transform="translate(-1265 -165.125)"/>
</svg>
