<svg xmlns="http://www.w3.org/2000/svg" width="11.5" height="14.938" viewBox="0 0 11.5 14.938">
  <metadata><?xpacket begin="﻿" id="W5M0MpCehiHzreSzNTczkc9d"?>
<x:xmpmeta xmlns:x="adobe:ns:meta/" x:xmptk="Adobe XMP Core 5.6-c142 79.160924, 2017/07/13-01:06:39        ">
   <rdf:RDF xmlns:rdf="http://www.w3.org/1999/02/22-rdf-syntax-ns#">
      <rdf:Description rdf:about=""/>
   </rdf:RDF>
</x:xmpmeta>
                                                                                                    
                                                                                                    
                                                                                                    
                                                                                                    
                                                                                                    
                                                                                                    
                                                                                                    
                                                                                                    
                                                                                                    
                                                                                                    
                                                                                                    
                                                                                                    
                                                                                                    
                                                                                                    
                                                                                                    
                                                                                                    
                                                                                                    
                                                                                                    
                                                                                                    
                                                                                                    
                           
<?xpacket end="w"?></metadata>
<defs>
    <style>
      .cls-1 {
        fill: #f1f1f1;
        fill-rule: evenodd;
      }
    </style>
  </defs>
  <path id="_4" data-name="4" class="cls-1" d="M1172.48,177.4a3.412,3.412,0,0,0-.83-2.426,4.071,4.071,0,0,0-2.22-1.19V173.7a3.227,3.227,0,0,0,1.51-1.259,3.493,3.493,0,0,0,.55-1.949,3.362,3.362,0,0,0-.4-1.671,2.843,2.843,0,0,0-1.2-1.156,4.671,4.671,0,0,0-1.59-.525,18.085,18.085,0,0,0-2.5-.127h-4.79v14.966h5.49a9.707,9.707,0,0,0,2.57-.282,5.248,5.248,0,0,0,1.86-.943,4.064,4.064,0,0,0,1.13-1.4,4.36,4.36,0,0,0,.42-1.963h0Zm-4.46-6.148a1.75,1.75,0,0,0-.19-0.745,1.117,1.117,0,0,0-.58-0.552,4.577,4.577,0,0,0-1.22-.179c-0.34-.01-0.85-0.014-1.51-0.014H1164v3.167h0.73q0.96,0,1.35-.02a4.151,4.151,0,0,0,1.14-.209,1.2,1.2,0,0,0,.62-0.583,1.985,1.985,0,0,0,.18-0.865h0Zm0.97,6.079a1.809,1.809,0,0,0-.28-1.084,1.686,1.686,0,0,0-.85-0.593,5.775,5.775,0,0,0-1.31-.148c-0.4-.01-0.93-0.014-1.6-0.014H1164v3.747h0.46c0.97,0,1.65-.007,2.02-0.021a5.429,5.429,0,0,0,1.53-.27,1.464,1.464,0,0,0,.74-0.649A1.944,1.944,0,0,0,1168.99,177.33Z" transform="translate(-1161 -167.031)"/>
</svg>
