<svg xmlns="http://www.w3.org/2000/svg" width="20" height="16.25" viewBox="0 0 20 16.25">
  <metadata><?xpacket begin="﻿" id="W5M0MpCehiHzreSzNTczkc9d"?>
<x:xmpmeta xmlns:x="adobe:ns:meta/" x:xmptk="Adobe XMP Core 5.6-c142 79.160924, 2017/07/13-01:06:39        ">
   <rdf:RDF xmlns:rdf="http://www.w3.org/1999/02/22-rdf-syntax-ns#">
      <rdf:Description rdf:about=""/>
   </rdf:RDF>
</x:xmpmeta>
                                                                                                    
                                                                                                    
                                                                                                    
                                                                                                    
                                                                                                    
                                                                                                    
                                                                                                    
                                                                                                    
                                                                                                    
                                                                                                    
                                                                                                    
                                                                                                    
                                                                                                    
                                                                                                    
                                                                                                    
                                                                                                    
                                                                                                    
                                                                                                    
                                                                                                    
                                                                                                    
                           
<?xpacket end="w"?></metadata>
<defs>
    <style>
      .cls-1 {
        fill: #f1f1f1;
        fill-rule: evenodd;
      }
    </style>
  </defs>
  <path id="_2" data-name="2" class="cls-1" d="M842.985,167.306a8.176,8.176,0,0,1-2.353.645,4.1,4.1,0,0,0,1.8-2.266,8.192,8.192,0,0,1-2.6.994,4.1,4.1,0,0,0-6.981,3.736,11.631,11.631,0,0,1-8.445-4.281,4.1,4.1,0,0,0,1.268,5.471,4.1,4.1,0,0,1-1.857-.511v0.05a4.1,4.1,0,0,0,3.288,4.017,3.971,3.971,0,0,1-1.08.145,4.062,4.062,0,0,1-.77-0.073,4.1,4.1,0,0,0,3.826,2.844,8.214,8.214,0,0,1-5.088,1.754,8.3,8.3,0,0,1-.978-0.056,11.653,11.653,0,0,0,17.938-9.817c0-.178,0-0.356-0.01-0.53a8.294,8.294,0,0,0,2.043-2.122" transform="translate(-823 -165.375)"/>
</svg>
